<?xml version="1.0" encoding="UTF-8" standalone="no"?>
<!DOCTYPE svg PUBLIC "-//W3C//DTD SVG 1.1//EN" "http://www.w3.org/Graphics/SVG/1.1/DTD/svg11.dtd">
<!-- Created with Vectornator (http://vectornator.io/) -->
<svg height="100%" stroke-miterlimit="10" style="fill-rule:nonzero;clip-rule:evenodd;stroke-linecap:round;stroke-linejoin:round;" version="1.1" viewBox="0 0 820.775 681.301" width="100%" xml:space="preserve" xmlns="http://www.w3.org/2000/svg" xmlns:vectornator="http://vectornator.io" xmlns:xlink="http://www.w3.org/1999/xlink">
<defs>
<linearGradient gradientTransform="matrix(1 0 0 1 -771.916 -543.379)" gradientUnits="userSpaceOnUse" id="LinearGradient" x1="1172.57" x2="1388.21" y1="1102.13" y2="1102.13">
<stop offset="0" stop-color="#81295c"/>
<stop offset="1" stop-color="#ab3052"/>
</linearGradient>
<filter color-interpolation-filters="sRGB" filterUnits="userSpaceOnUse" height="96.1083" id="Filter" width="235.638" x="390.658" y="520.695">
<feComponentTransfer in="SourceGraphic" result="Alpha">
<feFuncA slope="0.97" type="linear"/>
</feComponentTransfer>
<feDropShadow dx="-3.67321e-05" dy="10" flood-color="#000000" flood-opacity="0.333" in="Alpha" result="Shadow" stdDeviation="5"/>
</filter>
<linearGradient gradientTransform="matrix(699.03 0 0 593.242 59.5734 51.7271)" gradientUnits="userSpaceOnUse" id="LinearGradient_2" x1="0.5" x2="0.498053" y1="0" y2="1.00357">
<stop offset="0" stop-color="#ba6156"/>
<stop offset="0.325355" stop-color="#f2a65e"/>
<stop offset="0.707229" stop-color="#fbd271"/>
</linearGradient>
<filter color-interpolation-filters="sRGB" filterUnits="userSpaceOnUse" height="607.139" id="Filter_2" width="719.03" x="49.5734" y="51.7271">
<feDropShadow dx="-3.67321e-05" dy="10" flood-color="#000000" flood-opacity="0.333" in="SourceGraphic" result="Shadow" stdDeviation="5"/>
</filter>
<path d="M109.573 51.7271L513.603 51.7271C524.641 51.7271 533.603 60.6881 533.603 71.7271L533.603 72.9691C533.603 84.0071 524.641 92.9691 513.603 92.9691L159.694 92.9691C148.656 92.9691 139.694 99.4661 139.694 107.469L139.694 107.469C139.694 115.472 148.656 121.969 159.694 121.969L708.603 121.969C736.199 121.969 758.603 144.373 758.603 171.969L758.603 250.969L758.603 362.333L758.603 394.151C758.603 421.747 736.199 444.151 708.603 444.151L211.967 444.151C200.928 444.151 191.967 453.113 191.967 464.151L191.967 498.03C191.967 509.068 200.928 518.03 211.967 518.03L217.421 518.03C228.459 518.03 245.192 513.566 254.763 508.067L300.261 481.931C309.832 476.433 324.992 477.04 334.094 483.285L428.112 547.804C437.214 554.05 437.178 564.139 428.033 570.321L334.172 633.768C325.028 639.95 309.778 640.601 300.139 635.221L254.885 609.96C245.246 604.579 228.459 600.211 217.421 600.211L109.573 600.211C81.9774 600.211 59.5734 577.807 59.5734 550.211L59.5734 365.363C59.5734 337.767 81.9774 315.363 109.573 315.363L596.967 315.363C608.005 315.363 616.967 306.401 616.967 295.363L616.967 291.424C616.967 280.385 608.005 271.424 596.967 271.424L112.603 271.424C85.0074 271.424 62.2944 249.021 61.9134 221.428L60.2624 101.722C59.8824 74.1291 81.9774 51.7271 109.573 51.7271Z" fill-rule="evenodd" id="Fill"/>
<linearGradient gradientTransform="matrix(752.106 0 0 649.51 44.6034 8.40112)" gradientUnits="userSpaceOnUse" id="LinearGradient_3" x1="0.5" x2="0.5" y1="0" y2="1">
<stop offset="0" stop-color="#ba6156"/>
<stop offset="0.261111" stop-color="#ffb168"/>
<stop offset="0.654144" stop-color="#ffe478"/>
</linearGradient>
<filter color-interpolation-filters="sRGB" filterUnits="userSpaceOnUse" height="73.568" id="Filter_3" width="384.56" x="212.797" y="160.612">
<feDropShadow dx="-3.67321e-05" dy="10" flood-color="#000000" flood-opacity="0.333" in="SourceGraphic" result="Shadow" stdDeviation="5"/>
</filter>
<clipPath id="TextBounds">
<rect height="93" width="508.419" x="211.922" y="144.436"/>
</clipPath>
<filter color-interpolation-filters="sRGB" filterUnits="userSpaceOnUse" height="73.568" id="Filter_4" width="326.379" x="225.714" y="351.096">
<feDropShadow dx="-3.67321e-05" dy="10" flood-color="#000000" flood-opacity="0.333" in="SourceGraphic" result="Shadow" stdDeviation="5"/>
</filter>
<clipPath id="TextBounds_2">
<rect height="93" width="443.118" x="229.899" y="334.92"/>
</clipPath>
<clipPath id="TextBounds_3">
<rect height="29.5273" width="80.0977" x="458.917" y="548.12"/>
</clipPath>
</defs>
<clipPath id="ArtboardFrame">
<rect height="681.301" width="820.775" x="0" y="0"/>
</clipPath>
<g clip-path="url(#ArtboardFrame)" id="Layer-1" vectornator:layerName="Layer 1">
<path d="M400.658 540.404C400.658 540.404 484.399 542.903 537.271 538.207C590.143 533.511 600.643 516.588 612.145 521.62C623.647 526.652 583.279 558.334 583.279 558.334C583.279 558.334 625 589.164 614.645 595.334C604.29 601.505 595.356 586.457 541.86 583.017C488.363 579.578 400.658 581.576 400.658 581.576L400.658 540.404Z" fill="url(#LinearGradient)" fill-rule="evenodd" filter="url(#Filter)" stroke="#aa2f5c" stroke-linecap="butt" stroke-linejoin="round" stroke-opacity="0" stroke-width="0" vectornator:shadowAngle="1.5708" vectornator:shadowColor="#000000" vectornator:shadowOffset="10" vectornator:shadowOpacity="0.333" vectornator:shadowRadius="10"/>
<clipPath id="ClipPath">
<path d="M-194.397-24.0309L1085.6-24.0309L1085.6-24.0309L1085.6 775.969L1085.6 775.969L-194.397 775.969L-194.397 775.969L-194.397-24.0309L-194.397-24.0309Z" fill-rule="evenodd"/>
</clipPath>
<g clip-path="url(#ClipPath)">
<path d="M109.573 51.7271L513.603 51.7271C524.641 51.7271 533.603 60.6881 533.603 71.7271L533.603 72.9691C533.603 84.0071 524.641 92.9691 513.603 92.9691L159.694 92.9691C148.656 92.9691 139.694 99.4661 139.694 107.469L139.694 107.469C139.694 115.472 148.656 121.969 159.694 121.969L708.603 121.969C736.199 121.969 758.603 144.373 758.603 171.969L758.603 250.969L758.603 362.333L758.603 394.151C758.603 421.747 736.199 444.151 708.603 444.151L211.967 444.151C200.928 444.151 191.967 453.113 191.967 464.151L191.967 498.03C191.967 509.068 200.928 518.03 211.967 518.03L217.421 518.03C228.459 518.03 245.192 513.566 254.763 508.067L300.261 481.931C309.832 476.433 324.992 477.04 334.094 483.285L428.112 547.804C437.214 554.05 437.178 564.139 428.033 570.321L334.172 633.768C325.028 639.95 309.778 640.601 300.139 635.221L254.885 609.96C245.246 604.579 228.459 600.211 217.421 600.211L109.573 600.211C81.9774 600.211 59.5734 577.807 59.5734 550.211L59.5734 365.363C59.5734 337.767 81.9774 315.363 109.573 315.363L596.967 315.363C608.005 315.363 616.967 306.401 616.967 295.363L616.967 291.424C616.967 280.385 608.005 271.424 596.967 271.424L112.603 271.424C85.0074 271.424 62.2944 249.021 61.9134 221.428L60.2624 101.722C59.8824 74.1291 81.9774 51.7271 109.573 51.7271Z" fill="url(#LinearGradient_2)" fill-rule="evenodd" filter="url(#Filter_2)" stroke="none" vectornator:shadowAngle="1.5708" vectornator:shadowColor="#000000" vectornator:shadowOffset="10" vectornator:shadowOpacity="0.333" vectornator:shadowRadius="10"/>
<g opacity="1">
<use fill="#ba6156" fill-opacity="0" opacity="1" stroke="none" xlink:href="#Fill"/>
<clipPath id="ClipPath_2">
<use xlink:href="#Fill"/>
</clipPath>
<g clip-path="url(#ClipPath_2)">
<path d="M252.805 561.168L300.386 584.515C310.295 589.378 314.393 601.371 309.53 611.28L292.14 646.72C287.278 656.629 275.285 660.727 265.375 655.864L217.795 632.517C207.885 627.654 203.787 615.661 208.65 605.751L226.04 570.312C230.903 560.403 242.896 556.305 252.805 561.168L252.805 561.168L252.805 561.168L252.805 561.168L252.805 561.168L252.805 561.168L252.805 561.168L252.805 561.168L252.805 561.168L252.805 561.168L252.805 561.168L252.805 561.168ZM323.803 548.905L317.736 496.253C316.472 485.287 324.349 475.359 335.315 474.095L374.532 469.576C385.497 468.312 395.426 476.189 396.69 487.155L402.757 539.806C404.021 550.772 396.144 560.701 385.178 561.964L345.961 566.483C334.996 567.747 325.067 559.87 323.803 548.905L323.803 548.905L323.803 548.905L323.803 548.905L323.803 548.905L323.803 548.905L323.803 548.905L323.803 548.905L323.803 548.905L323.803 548.905L323.803 548.905L323.803 548.905ZM50.3094 588.835L44.7514 540.601C43.3474 528.416 52.0994 517.383 64.2844 515.979L117.613 509.834C129.797 508.43 140.83 517.182 142.234 529.367L147.792 577.601C149.196 589.786 140.444 600.818 128.259 602.223L74.9304 608.368C62.7464 609.772 51.7134 601.02 50.3094 588.835L50.3094 588.835L50.3094 588.835L50.3094 588.835L50.3094 588.835L50.3094 588.835L50.3094 588.835L50.3094 588.835L50.3094 588.835L50.3094 588.835L50.3094 588.835ZM153.646 469.118L148.088 420.884C146.684 408.699 155.436 397.666 167.621 396.262L220.95 390.117C233.135 388.713 244.167 397.465 245.571 409.65L251.129 457.884C252.534 470.069 243.781 481.101 231.596 482.505L178.268 488.651C166.083 490.055 155.05 481.302 153.646 469.118L153.646 469.118L153.646 469.118L153.646 469.118L153.646 469.118L153.646 469.118L153.646 469.118L153.646 469.118L153.646 469.118L153.646 469.118ZM284.197 331.891L315.73 294.971C323.696 285.645 337.735 284.54 347.062 292.506L387.881 327.37C397.208 335.336 398.312 349.375 390.346 358.702L358.813 395.621C350.847 404.948 336.808 406.053 327.481 398.087L286.662 363.223C277.336 355.257 276.231 341.218 284.197 331.891L284.197 331.891L284.197 331.891L284.197 331.891L284.197 331.891L284.197 331.891L284.197 331.891L284.197 331.891L284.197 331.891ZM508.613 472.407L499.533 424.71C497.24 412.661 505.16 401.017 517.209 398.723L569.943 388.685C581.993 386.391 593.637 394.312 595.931 406.361L605.01 454.057C607.303 466.106 599.383 477.751 587.334 480.044L534.6 490.083C522.551 492.376 510.906 484.456 508.613 472.407L508.613 472.407L508.613 472.407L508.613 472.407L508.613 472.407L508.613 472.407L508.613 472.407L508.613 472.407ZM590.517 198.689L562.247 159.215C555.105 149.243 557.403 135.349 567.375 128.207L611.018 96.9511C620.99 89.8091 634.884 92.1071 642.026 102.079L670.296 141.553C677.438 151.525 675.14 165.419 665.168 172.56L621.525 203.817C611.553 210.958 597.659 208.661 590.517 198.689L590.517 198.689L590.517 198.689L590.517 198.689L590.517 198.689L590.517 198.689L590.517 198.689ZM454.641 276.201L449.082 227.966C447.678 215.782 456.431 204.749 468.615 203.345L521.944 197.2C534.129 195.796 545.161 204.548 546.565 216.733L552.124 264.967C553.528 277.152 544.775 288.184 532.591 289.588L479.262 295.734C467.077 297.138 456.045 288.385 454.641 276.201L454.641 276.201L454.641 276.201L454.641 276.201L454.641 276.201L454.641 276.201ZM269.482 268.106L228.177 242.585C217.743 236.138 214.506 222.432 220.953 211.998L249.17 166.331C255.617 155.896 269.322 152.659 279.757 159.106L321.062 184.628C331.496 191.075 334.733 204.78 328.286 215.215L300.069 260.882C293.622 271.316 279.916 274.553 269.482 268.106L269.482 268.106L269.482 268.106L269.482 268.106L269.482 268.106ZM137.488 193.735L96.1834 168.213C85.7484 161.766 82.5114 148.061 88.9594 137.626L117.175 91.9591C123.623 81.5251 137.328 78.2871 147.762 84.7351L189.067 110.256C199.502 116.703 202.739 130.409 196.291 140.843L168.075 186.51C161.627 196.945 147.922 200.182 137.488 193.735L137.488 193.735L137.488 193.735L137.488 193.735ZM271.639 115.537L236.304 93.7041C230.137 89.8941 228.224 81.7941 232.034 75.6271L242.937 57.9821C246.747 51.8161 254.847 49.9031 261.013 53.7131L296.348 75.5461C302.515 79.3561 304.428 87.4561 300.618 93.6221L289.715 111.267C285.905 117.434 277.805 119.347 271.639 115.537L271.639 115.537L271.639 115.537ZM439.72 53.7391L400.235 66.6301C393.344 68.8801 385.923 65.1121 383.674 58.2221L377.236 38.5041C374.987 31.6141 378.755 24.1931 385.645 21.9431L425.13 9.05212C432.021 6.80212 439.441 10.5701 441.691 17.4611L448.129 37.1781C450.378 44.0691 446.61 51.4901 439.72 53.7391L439.72 53.7391ZM709.66 346.64L684.403 305.174C678.022 294.699 681.347 281.014 691.822 274.633L737.668 246.708C748.143 240.328 761.828 243.652 768.209 254.127L793.466 295.594C799.847 306.069 796.522 319.754 786.047 326.134L740.201 354.06C729.725 360.44 716.041 357.116 709.66 346.64Z" fill="url(#LinearGradient_3)" fill-rule="evenodd" opacity="1" stroke="none"/>
</g>
</g>
<path d="M334.419 527.377C334.419 518.766 341.4 511.785 350.011 511.785C358.623 511.785 365.603 518.766 365.603 527.377C365.603 535.988 358.623 542.969 350.011 542.969C341.4 542.969 334.419 535.988 334.419 527.377Z" fill="#272736" fill-rule="evenodd" opacity="1" stroke="none"/>
<path d="M334.419 572.561C334.419 563.95 341.4 556.969 350.011 556.969C358.623 556.969 365.603 563.95 365.603 572.561C365.603 581.173 358.623 588.154 350.011 588.154C341.4 588.154 334.419 581.173 334.419 572.561Z" fill="#272736" fill-rule="evenodd" opacity="1" stroke="none"/>
<path d="M350.011 568.969C350.011 565.655 352.697 562.969 356.011 562.969C359.325 562.969 362.011 565.655 362.011 568.969C362.011 572.283 359.325 574.969 356.011 574.969C352.697 574.969 350.011 572.283 350.011 568.969Z" fill="#ffffff" fill-rule="evenodd" opacity="1" stroke="none"/>
<path d="M350.011 522.969C350.011 519.655 352.697 516.969 356.011 516.969C359.325 516.969 362.011 519.655 362.011 522.969C362.011 526.283 359.325 528.969 356.011 528.969C352.697 528.969 350.011 526.283 350.011 522.969Z" fill="#ffffff" fill-rule="evenodd" opacity="1" stroke="none"/>
<g filter="url(#Filter_3)" vectornator:shadowAngle="1.5708" vectornator:shadowColor="#000000" vectornator:shadowOffset="10" vectornator:shadowOpacity="0.333" vectornator:shadowRadius="10">
<g fill="#ffffff" opacity="1" stroke="none">
<path clip-path="url(#TextBounds)" d="M224.805 161.356L252.631 161.356C259.674 161.356 265.254 163.068 269.371 166.49C273.488 169.912 275.546 174.302 275.546 179.659C275.546 185.016 273.81 189.269 270.338 192.418C266.866 195.568 260.964 197.143 252.631 197.143L242.81 197.143L242.81 211.428C242.81 211.973 242.612 212.444 242.215 212.841C241.818 213.238 241.347 213.436 240.801 213.436L224.805 213.436C224.26 213.436 223.789 213.238 223.392 212.841C222.995 212.444 222.797 211.973 222.797 211.428L222.797 163.365C222.797 162.82 222.995 162.348 223.392 161.952C223.789 161.555 224.26 161.356 224.805 161.356ZM242.885 175.195L242.885 183.379L252.333 183.379C253.474 183.379 254.404 183.032 255.123 182.337C255.843 181.643 256.202 180.676 256.202 179.436C256.202 178.196 255.855 177.179 255.161 176.385C254.466 175.592 253.524 175.195 252.333 175.195L242.885 175.195Z" fill-rule="evenodd"/>
<path clip-path="url(#TextBounds)" d="M319.963 161.356L335.513 161.356C335.959 161.356 336.343 161.518 336.666 161.84C336.988 162.162 337.149 162.497 337.149 162.844C337.149 163.192 337.075 163.514 336.926 163.812L318.177 194.836L318.177 211.428C318.177 211.973 317.979 212.444 317.582 212.841C317.185 213.238 316.714 213.436 316.169 213.436L300.321 213.436C299.776 213.436 299.305 213.238 298.908 212.841C298.511 212.444 298.313 211.973 298.313 211.428L298.313 194.836L279.638 163.812C279.489 163.514 279.415 163.192 279.415 162.844C279.415 162.497 279.576 162.162 279.899 161.84C280.221 161.518 280.605 161.356 281.052 161.356L296.75 161.356C298.139 161.356 299.156 161.927 299.801 163.068L308.208 177.799L316.838 163.216C317.582 161.976 318.624 161.356 319.963 161.356Z" fill-rule="evenodd"/>
<path clip-path="url(#TextBounds)" d="M376.73 182.04L398.306 182.04C398.852 182.04 399.323 182.238 399.72 182.635C400.117 183.032 400.315 183.503 400.315 184.048L400.315 191.935C400.315 199.474 397.748 205.066 392.615 208.712C387.481 212.358 380.698 214.18 372.266 214.18C363.834 214.18 357.051 212.358 351.918 208.712C346.784 205.066 344.217 199.424 344.217 191.786L344.217 183.007C344.217 179.188 344.949 175.815 346.412 172.888C347.875 169.962 349.921 167.606 352.55 165.82C357.709 162.348 364.281 160.612 372.266 160.612C376.234 160.612 379.867 161.071 383.166 161.989C386.464 162.906 389.093 164.047 391.052 165.411C393.011 166.775 394.685 168.251 396.074 169.838C398.505 172.616 399.72 175.071 399.72 177.204C399.72 177.65 399.559 178.034 399.236 178.357C398.914 178.679 398.529 178.84 398.083 178.84L381.269 178.84C380.277 178.84 379.557 178.568 379.111 178.022C377.573 176.088 375.478 175.12 372.824 175.12C370.171 175.12 368.087 175.641 366.575 176.683C365.062 177.724 364.305 179.064 364.305 180.7L364.305 193.348C364.305 195.332 365.049 196.882 366.537 197.998C368.025 199.114 370.121 199.672 372.824 199.672C375.527 199.672 377.611 199.139 379.074 198.073C380.537 197.006 381.293 195.754 381.343 194.316L376.73 194.316C376.185 194.316 375.713 194.117 375.317 193.72C374.92 193.324 374.721 192.852 374.721 192.307L374.721 184.048C374.721 183.503 374.92 183.032 375.317 182.635C375.713 182.238 376.185 182.04 376.73 182.04Z" fill-rule="evenodd"/>
<path clip-path="url(#TextBounds)" d="M420.701 213.436L406.639 213.436C406.193 213.436 405.808 213.275 405.486 212.953C405.163 212.63 405.002 212.32 405.002 212.023C405.002 211.725 405.027 211.502 405.077 211.353L421.296 163.812C421.742 162.175 422.858 161.356 424.644 161.356L445.327 161.356C447.113 161.356 448.229 162.175 448.675 163.812L464.894 211.353C464.944 211.502 464.969 211.725 464.969 212.023C464.969 212.32 464.807 212.63 464.485 212.953C464.163 213.275 463.778 213.436 463.332 213.436L449.27 213.436C447.683 213.436 446.567 212.593 445.922 210.907L444.062 205.699L425.909 205.699L424.049 210.907C423.404 212.593 422.288 213.436 420.701 213.436ZM440.268 191.191L434.985 175.716L429.703 191.191L440.268 191.191Z" fill-rule="evenodd"/>
<path clip-path="url(#TextBounds)" d="M510.948 161.356L524.563 161.356C525.109 161.356 525.58 161.555 525.977 161.952C526.373 162.348 526.572 162.82 526.572 163.365L526.572 211.428C526.572 211.973 526.373 212.444 525.977 212.841C525.58 213.238 525.109 213.436 524.563 213.436L511.097 213.436C510.551 213.436 510.08 213.238 509.683 212.841C509.286 212.444 509.088 211.973 509.088 211.428L509.088 188.364L503.657 199.077C503.359 199.672 502.913 200.131 502.317 200.454C501.722 200.776 501.127 200.937 500.532 200.937L495.473 200.937C494.629 200.937 493.935 200.714 493.389 200.268C492.844 199.821 492.497 199.424 492.348 199.077L486.917 188.364L486.917 211.428C486.917 211.973 486.718 212.444 486.321 212.841C485.925 213.238 485.453 213.436 484.908 213.436L471.441 213.436C470.896 213.436 470.425 213.238 470.028 212.841C469.631 212.444 469.433 211.973 469.433 211.428L469.433 163.365C469.433 162.82 469.631 162.348 470.028 161.952C470.425 161.555 470.896 161.356 471.441 161.356L485.057 161.356C486.445 161.356 487.512 162.026 488.256 163.365L498.002 181.221L507.749 163.365C508.493 162.026 509.559 161.356 510.948 161.356Z" fill-rule="evenodd"/>
<path clip-path="url(#TextBounds)" d="M555.662 198.928L585.348 198.928C585.894 198.928 586.365 199.127 586.762 199.524C587.158 199.92 587.357 200.392 587.357 200.937L587.357 211.428C587.357 211.973 587.158 212.444 586.762 212.841C586.365 213.238 585.894 213.436 585.348 213.436L538.327 213.436C537.781 213.436 537.31 213.238 536.913 212.841C536.517 212.444 536.318 211.973 536.318 211.428L536.318 163.365C536.318 162.82 536.517 162.348 536.913 161.952C537.31 161.555 537.781 161.356 538.327 161.356L584.604 161.356C585.15 161.356 585.621 161.555 586.018 161.952C586.414 162.348 586.613 162.82 586.613 163.365L586.613 173.856C586.613 174.401 586.414 174.872 586.018 175.269C585.621 175.666 585.15 175.864 584.604 175.864L555.662 175.864L555.662 180.552L580.512 180.552C581.058 180.552 581.529 180.75 581.926 181.147C582.322 181.544 582.521 182.015 582.521 182.56L582.521 192.232C582.521 192.778 582.322 193.249 581.926 193.646C581.529 194.043 581.058 194.241 580.512 194.241L555.662 194.241L555.662 198.928Z" fill-rule="evenodd"/>
</g>
</g>
<g filter="url(#Filter_4)" vectornator:shadowAngle="1.5708" vectornator:shadowColor="#000000" vectornator:shadowOffset="10" vectornator:shadowOpacity="0.333" vectornator:shadowRadius="10">
<g fill="#ffffff" opacity="1" stroke="none">
<path clip-path="url(#TextBounds_2)" d="M268.227 372.523L289.803 372.523C290.348 372.523 290.82 372.722 291.216 373.119C291.613 373.515 291.812 373.987 291.812 374.532L291.812 382.419C291.812 389.958 289.245 395.55 284.111 399.196C278.978 402.841 272.195 404.664 263.763 404.664C255.331 404.664 248.548 402.841 243.414 399.196C238.281 395.55 235.714 389.908 235.714 382.27L235.714 373.491C235.714 369.671 236.446 366.299 237.909 363.372C239.372 360.446 241.418 358.09 244.047 356.304C249.205 352.832 255.777 351.096 263.763 351.096C267.731 351.096 271.364 351.555 274.662 352.473C277.961 353.39 280.59 354.531 282.549 355.895C284.508 357.259 286.182 358.735 287.571 360.322C290.001 363.099 291.216 365.555 291.216 367.687C291.216 368.134 291.055 368.518 290.733 368.841C290.41 369.163 290.026 369.324 289.58 369.324L272.765 369.324C271.773 369.324 271.054 369.051 270.608 368.506C269.07 366.571 266.974 365.604 264.321 365.604C261.667 365.604 259.584 366.125 258.071 367.167C256.558 368.208 255.802 369.547 255.802 371.184L255.802 383.832C255.802 385.816 256.546 387.366 258.034 388.482C259.522 389.598 261.618 390.156 264.321 390.156C267.024 390.156 269.107 389.623 270.57 388.557C272.034 387.49 272.79 386.238 272.84 384.799L268.227 384.799C267.681 384.799 267.21 384.601 266.813 384.204C266.416 383.807 266.218 383.336 266.218 382.791L266.218 374.532C266.218 373.987 266.416 373.515 266.813 373.119C267.21 372.722 267.681 372.523 268.227 372.523Z" fill-rule="evenodd"/>
<path clip-path="url(#TextBounds_2)" d="M346.049 399.233C341.188 402.854 334.592 404.664 326.259 404.664C317.926 404.664 311.317 402.854 306.431 399.233C301.546 395.612 299.103 389.958 299.103 382.27L299.103 353.849C299.103 353.303 299.301 352.832 299.698 352.435C300.095 352.039 300.566 351.84 301.112 351.84L316.661 351.84C317.207 351.84 317.678 352.039 318.075 352.435C318.472 352.832 318.67 353.303 318.67 353.849L318.67 383.46C318.67 385.494 319.352 387.056 320.716 388.147C322.08 389.239 323.928 389.784 326.259 389.784C328.59 389.784 330.438 389.239 331.802 388.147C333.166 387.056 333.848 385.494 333.848 383.46L333.848 353.849C333.848 353.303 334.046 352.832 334.443 352.435C334.84 352.039 335.311 351.84 335.856 351.84L351.406 351.84C351.952 351.84 352.423 352.039 352.82 352.435C353.216 352.832 353.415 353.303 353.415 353.849L353.415 382.27C353.415 389.958 350.96 395.612 346.049 399.233Z" fill-rule="evenodd"/>
<path clip-path="url(#TextBounds_2)" d="M413.084 367.092L399.617 367.092L399.617 388.668L413.084 388.668C413.629 388.668 414.1 388.867 414.497 389.263C414.894 389.66 415.092 390.131 415.092 390.677L415.092 401.911C415.092 402.457 414.894 402.928 414.497 403.325C414.1 403.722 413.629 403.92 413.084 403.92L365.914 403.92C365.368 403.92 364.897 403.722 364.5 403.325C364.104 402.928 363.905 402.457 363.905 401.911L363.905 390.677C363.905 390.131 364.104 389.66 364.5 389.263C364.897 388.867 365.368 388.668 365.914 388.668L379.529 388.668L379.529 367.092L365.914 367.092C365.368 367.092 364.897 366.894 364.5 366.497C364.104 366.1 363.905 365.629 363.905 365.083L363.905 353.849C363.905 353.303 364.104 352.832 364.5 352.435C364.897 352.039 365.368 351.84 365.914 351.84L413.084 351.84C413.629 351.84 414.1 352.039 414.497 352.435C414.894 352.832 415.092 353.303 415.092 353.849L415.092 365.083C415.092 365.629 414.894 366.1 414.497 366.497C414.1 366.894 413.629 367.092 413.084 367.092Z" fill-rule="evenodd"/>
<path clip-path="url(#TextBounds_2)" d="M428.782 351.84L452.516 351.84C457.972 351.84 462.708 352.559 466.726 353.998C470.744 355.436 473.992 357.867 476.472 361.289C478.952 364.711 480.192 368.977 480.192 374.086L480.192 381.675C480.192 389.611 477.514 395.389 472.157 399.01C467.247 402.283 460.7 403.92 452.516 403.92L428.782 403.92C428.236 403.92 427.765 403.722 427.368 403.325C426.972 402.928 426.773 402.457 426.773 401.911L426.773 353.849C426.773 353.303 426.972 352.832 427.368 352.435C427.765 352.039 428.236 351.84 428.782 351.84ZM446.117 366.348L446.117 389.412L452.888 389.412C455.219 389.412 457.066 388.854 458.43 387.738C459.794 386.622 460.476 385.047 460.476 383.014L460.476 372.747C460.476 370.713 459.794 369.138 458.43 368.022C457.066 366.906 455.219 366.348 452.888 366.348L446.117 366.348Z" fill-rule="evenodd"/>
<path clip-path="url(#TextBounds_2)" d="M510.399 389.412L540.084 389.412C540.63 389.412 541.101 389.611 541.498 390.007C541.895 390.404 542.093 390.875 542.093 391.421L542.093 401.911C542.093 402.457 541.895 402.928 541.498 403.325C541.101 403.722 540.63 403.92 540.084 403.92L493.064 403.92C492.518 403.92 492.047 403.722 491.65 403.325C491.253 402.928 491.055 402.457 491.055 401.911L491.055 353.849C491.055 353.303 491.253 352.832 491.65 352.435C492.047 352.039 492.518 351.84 493.064 351.84L539.34 351.84C539.886 351.84 540.357 352.039 540.754 352.435C541.151 352.832 541.349 353.303 541.349 353.849L541.349 364.339C541.349 364.885 541.151 365.356 540.754 365.753C540.357 366.15 539.886 366.348 539.34 366.348L510.399 366.348L510.399 371.035L535.248 371.035C535.794 371.035 536.265 371.234 536.662 371.631C537.059 372.027 537.257 372.499 537.257 373.044L537.257 382.716C537.257 383.262 537.059 383.733 536.662 384.13C536.265 384.527 535.794 384.725 535.248 384.725L510.399 384.725L510.399 389.412Z" fill-rule="evenodd"/>
</g>
</g>
<g opacity="0.97">
<g fill="#ffffff" opacity="1" stroke="none">
<path clip-path="url(#TextBounds_3)" d="M469.656 553.89C469.656 554.424 469.474 554.91 469.108 555.346C468.742 555.782 468.296 556.172 467.769 556.516C467.241 556.861 466.689 557.16 466.113 557.413C465.536 557.666 465.037 557.877 464.615 558.046C464.615 558.341 464.608 558.643 464.594 558.953C464.58 559.262 464.559 559.571 464.531 559.881C464.981 559.656 465.487 559.445 466.049 559.248C466.612 559.051 467.146 558.953 467.653 558.953C468.06 558.953 468.394 559.037 468.655 559.206C468.915 559.374 469.045 559.67 469.045 560.092C469.045 560.556 468.88 560.971 468.549 561.336C468.219 561.702 467.821 562.025 467.357 562.307C466.893 562.588 466.408 562.827 465.902 563.024C465.396 563.221 464.967 563.375 464.615 563.488C464.615 563.952 464.608 564.412 464.594 564.869C464.58 565.326 464.559 565.78 464.531 566.23C464.517 566.455 464.492 566.736 464.457 567.074C464.422 567.411 464.351 567.738 464.246 568.055C464.14 568.371 463.989 568.645 463.792 568.877C463.596 569.109 463.342 569.225 463.033 569.225C462.738 569.225 462.485 569.081 462.274 568.793C462.063 568.505 461.883 568.135 461.736 567.685C461.588 567.235 461.469 566.733 461.377 566.177C461.286 565.622 461.215 565.077 461.166 564.542C461.117 564.008 461.089 563.516 461.082 563.066C461.075 562.616 461.071 562.271 461.071 562.032C461.071 561.849 461.075 561.579 461.082 561.22C461.089 560.862 461.096 560.464 461.103 560.028C461.11 559.592 461.124 559.135 461.145 558.657C461.166 558.179 461.191 557.726 461.219 557.297C461.247 556.868 461.286 556.488 461.335 556.158C461.384 555.827 461.444 555.585 461.514 555.43C461.669 555.121 462.038 554.815 462.622 554.512C463.205 554.21 463.856 553.943 464.573 553.711C465.29 553.479 465.99 553.289 466.672 553.141C467.354 552.994 467.878 552.92 468.243 552.92C468.412 552.92 468.577 552.93 468.739 552.951C468.901 552.973 469.052 553.018 469.192 553.089C469.333 553.159 469.446 553.257 469.53 553.384C469.614 553.51 469.656 553.679 469.656 553.89Z" fill-rule="evenodd"/>
<path clip-path="url(#TextBounds_3)" d="M473.77 569.732C473.053 569.732 472.427 569.542 471.892 569.162C471.358 568.782 470.908 568.297 470.542 567.707C470.177 567.116 469.903 566.458 469.72 565.734C469.537 565.01 469.446 564.296 469.446 563.593C469.446 562.848 469.537 562.078 469.72 561.283C469.903 560.489 470.184 559.765 470.564 559.111C470.943 558.457 471.428 557.923 472.019 557.508C472.61 557.093 473.313 556.885 474.128 556.885C474.916 556.885 475.587 557.1 476.143 557.529C476.698 557.958 477.145 558.492 477.482 559.132C477.82 559.772 478.059 560.471 478.199 561.231C478.34 561.99 478.389 562.707 478.347 563.382C478.305 564.128 478.189 564.88 477.999 565.639C477.809 566.399 477.531 567.081 477.166 567.685C476.8 568.29 476.336 568.782 475.774 569.162C475.211 569.542 474.543 569.732 473.77 569.732ZM473.981 560.197C473.77 560.197 473.583 560.31 473.422 560.535C473.26 560.76 473.126 561.034 473.021 561.357C472.915 561.681 472.835 562.022 472.778 562.38C472.722 562.739 472.694 563.052 472.694 563.319C472.694 563.657 472.726 564.022 472.789 564.416C472.852 564.81 472.94 565.172 473.053 565.502C473.165 565.833 473.302 566.107 473.464 566.325C473.626 566.543 473.812 566.652 474.023 566.652C474.248 566.652 474.441 566.546 474.603 566.335C474.765 566.124 474.895 565.857 474.993 565.534C475.092 565.21 475.162 564.855 475.204 564.469C475.246 564.082 475.267 563.72 475.267 563.382C475.267 563.073 475.239 562.732 475.183 562.359C475.127 561.987 475.046 561.639 474.94 561.315C474.835 560.992 474.701 560.724 474.54 560.514C474.378 560.303 474.192 560.197 473.981 560.197Z" fill-rule="evenodd"/>
<path clip-path="url(#TextBounds_3)" d="M486.742 561.231C486.546 561.245 486.377 561.227 486.236 561.178C486.096 561.129 485.955 561.076 485.814 561.02C485.688 560.964 485.561 560.911 485.435 560.862C485.308 560.812 485.167 560.795 485.013 560.809C484.731 560.823 484.482 560.9 484.264 561.041C484.046 561.182 483.849 561.357 483.673 561.568C483.498 561.779 483.346 562.015 483.22 562.275C483.093 562.535 482.995 562.792 482.924 563.045C482.882 563.214 482.851 563.47 482.83 563.815C482.808 564.159 482.798 564.528 482.798 564.922C482.784 565.33 482.777 565.717 482.777 566.082C482.777 566.448 482.763 566.736 482.735 566.947C482.721 567.172 482.685 567.436 482.629 567.738C482.573 568.04 482.485 568.325 482.365 568.592C482.246 568.86 482.088 569.085 481.891 569.267C481.694 569.45 481.441 569.542 481.131 569.542C480.892 569.542 480.685 569.471 480.509 569.331C480.333 569.19 480.186 569.004 480.066 568.772C479.947 568.54 479.848 568.269 479.771 567.96C479.694 567.65 479.634 567.334 479.592 567.01C479.549 566.673 479.518 566.335 479.497 565.998C479.476 565.66 479.462 565.34 479.455 565.038C479.448 564.736 479.448 564.458 479.455 564.205C479.462 563.952 479.465 563.748 479.465 563.593C479.451 563.101 479.426 562.605 479.391 562.106C479.356 561.607 479.339 561.111 479.339 560.619C479.339 560.31 479.353 559.965 479.381 559.585C479.409 559.206 479.486 558.851 479.613 558.52C479.739 558.19 479.926 557.912 480.172 557.687C480.418 557.462 480.759 557.349 481.195 557.349C481.434 557.349 481.638 557.427 481.806 557.582C481.975 557.736 482.112 557.926 482.218 558.151C482.323 558.376 482.404 558.615 482.46 558.868C482.517 559.121 482.552 559.353 482.566 559.564C482.903 559.016 483.283 558.569 483.705 558.225C484.127 557.88 484.675 557.694 485.35 557.666C485.688 557.652 486.022 557.683 486.352 557.761C486.683 557.838 486.985 557.965 487.259 558.14C487.533 558.316 487.758 558.545 487.934 558.826C488.11 559.107 488.205 559.438 488.219 559.817C488.247 560.267 488.114 560.612 487.818 560.851C487.523 561.09 487.164 561.217 486.742 561.231Z" fill-rule="evenodd"/>
<path clip-path="url(#TextBounds_3)" d="M500.517 554.312C500.517 554.635 500.415 554.917 500.211 555.156C500.007 555.395 499.764 555.592 499.483 555.746C499.23 555.901 498.97 556.066 498.703 556.242C498.435 556.418 498.189 556.615 497.964 556.833C497.739 557.051 497.556 557.293 497.416 557.56C497.275 557.828 497.205 558.13 497.205 558.467C497.205 558.763 497.275 559.03 497.416 559.269C497.556 559.508 497.729 559.744 497.933 559.976C498.137 560.208 498.362 560.447 498.608 560.693C498.854 560.939 499.079 561.213 499.283 561.515C499.487 561.818 499.659 562.159 499.799 562.539C499.94 562.918 500.01 563.361 500.01 563.867C500.01 564.219 499.937 564.616 499.789 565.059C499.641 565.502 499.441 565.949 499.188 566.399C498.935 566.849 498.636 567.285 498.291 567.707C497.947 568.128 497.581 568.505 497.194 568.835C496.808 569.165 496.403 569.433 495.981 569.637C495.56 569.84 495.152 569.942 494.758 569.942C494.322 569.942 493.935 569.823 493.598 569.584C493.26 569.345 493.092 568.986 493.092 568.508C493.092 568.185 493.169 567.886 493.324 567.612C493.478 567.337 493.668 567.074 493.893 566.821C494.118 566.567 494.368 566.321 494.642 566.082C494.916 565.843 495.166 565.604 495.391 565.365C495.616 565.126 495.806 564.876 495.96 564.616C496.115 564.356 496.192 564.078 496.192 563.783C496.192 563.375 496.048 562.957 495.76 562.528C495.472 562.099 495.152 561.656 494.8 561.199C494.449 560.742 494.129 560.274 493.84 559.796C493.552 559.318 493.408 558.833 493.408 558.341C493.408 557.736 493.57 557.1 493.893 556.432C494.217 555.764 494.631 555.152 495.138 554.597C495.644 554.041 496.214 553.581 496.846 553.215C497.479 552.849 498.105 552.667 498.724 552.667C499.216 552.667 499.638 552.814 499.989 553.11C500.341 553.405 500.517 553.806 500.517 554.312Z" fill-rule="evenodd"/>
<path clip-path="url(#TextBounds_3)" d="M507.246 569.71C507.006 569.71 506.817 569.601 506.676 569.383C506.535 569.165 506.43 568.916 506.36 568.635C506.289 568.353 506.244 568.069 506.223 567.78C506.201 567.492 506.191 567.271 506.191 567.116C506.191 566.694 506.215 566.272 506.265 565.85C506.314 565.428 506.37 565.007 506.433 564.585C506.497 564.163 506.553 563.741 506.602 563.319C506.651 562.897 506.676 562.475 506.676 562.053C506.676 561.885 506.669 561.702 506.655 561.505C506.641 561.308 506.609 561.122 506.56 560.946C506.511 560.77 506.43 560.626 506.317 560.514C506.205 560.401 506.057 560.345 505.874 560.345C505.748 560.345 505.607 560.447 505.453 560.651C505.298 560.855 505.154 561.087 505.02 561.347C504.887 561.607 504.774 561.867 504.683 562.127C504.591 562.387 504.546 562.581 504.546 562.707C504.546 563.017 504.549 563.33 504.556 563.646C504.563 563.962 504.567 564.282 504.567 564.606L504.567 565.829C504.553 566.082 504.531 566.342 504.503 566.61C504.475 566.877 504.433 567.137 504.377 567.39C504.335 567.643 504.271 567.886 504.187 568.118C504.103 568.35 503.994 568.554 503.86 568.73C503.726 568.905 503.568 569.049 503.385 569.162C503.203 569.274 502.985 569.331 502.731 569.331C502.45 569.331 502.218 569.239 502.035 569.057C501.853 568.874 501.705 568.638 501.592 568.35C501.48 568.062 501.399 567.738 501.35 567.38C501.301 567.021 501.265 566.669 501.244 566.325C501.223 565.98 501.216 565.664 501.223 565.376C501.23 565.087 501.234 564.859 501.234 564.69L501.234 563.699C501.234 563.164 501.223 562.637 501.202 562.117C501.181 561.596 501.171 561.076 501.171 560.556C501.171 560.274 501.174 559.916 501.181 559.48C501.188 559.044 501.241 558.619 501.339 558.204C501.438 557.789 501.599 557.434 501.824 557.139C502.049 556.843 502.38 556.696 502.816 556.696C503.013 556.696 503.189 556.759 503.343 556.885C503.498 557.012 503.635 557.167 503.755 557.349C503.874 557.532 503.973 557.729 504.05 557.94C504.127 558.151 504.187 558.334 504.229 558.489C504.37 558.292 504.535 558.102 504.725 557.919C504.915 557.736 505.129 557.574 505.368 557.434C505.607 557.293 505.874 557.181 506.17 557.096C506.465 557.012 506.803 556.97 507.182 556.97C507.899 556.97 508.458 557.142 508.859 557.487C509.26 557.831 509.555 558.26 509.745 558.773C509.935 559.287 510.051 559.839 510.093 560.429C510.135 561.02 510.156 561.554 510.156 562.032C510.156 562.271 510.135 562.626 510.093 563.098C510.051 563.569 509.984 564.089 509.893 564.658C509.801 565.228 509.678 565.812 509.524 566.409C509.369 567.007 509.186 567.552 508.975 568.044C508.764 568.536 508.515 568.937 508.226 569.246C507.938 569.556 507.611 569.71 507.246 569.71Z" fill-rule="evenodd"/>
<path clip-path="url(#TextBounds_3)" d="M520.176 565.365C520.176 565.843 520.025 566.311 519.723 566.768C519.42 567.225 519.04 567.633 518.583 567.991C518.126 568.35 517.638 568.638 517.117 568.856C516.597 569.074 516.119 569.183 515.683 569.183C514.938 569.183 514.273 568.997 513.69 568.624C513.106 568.251 512.617 567.777 512.224 567.2C511.83 566.624 511.531 565.987 511.327 565.291C511.123 564.595 511.021 563.917 511.021 563.256C511.021 562.553 511.12 561.8 511.317 560.999C511.514 560.197 511.812 559.459 512.213 558.784C512.614 558.109 513.12 557.546 513.732 557.096C514.344 556.646 515.071 556.421 515.915 556.421C516.393 556.421 516.85 556.502 517.286 556.664C517.722 556.826 518.102 557.054 518.425 557.349C518.749 557.645 519.009 557.996 519.206 558.404C519.403 558.812 519.501 559.269 519.501 559.775C519.501 560.436 519.36 561.055 519.079 561.632C518.798 562.208 518.425 562.707 517.961 563.129C517.497 563.551 516.963 563.892 516.358 564.152C515.753 564.412 515.135 564.557 514.502 564.585C514.558 564.992 514.723 565.288 514.998 565.471C515.272 565.653 515.599 565.745 515.978 565.745C516.26 565.745 516.534 565.674 516.801 565.534C517.068 565.393 517.328 565.235 517.581 565.059C517.835 564.883 518.084 564.725 518.33 564.585C518.576 564.444 518.826 564.374 519.079 564.374C519.36 564.374 519.614 564.465 519.839 564.648C520.064 564.831 520.176 565.07 520.176 565.365ZM516.759 560.197C516.759 560.014 516.71 559.824 516.611 559.628C516.513 559.431 516.358 559.332 516.147 559.332C515.838 559.332 515.578 559.413 515.367 559.575C515.156 559.737 514.98 559.94 514.839 560.187C514.699 560.433 514.59 560.696 514.512 560.978C514.435 561.259 514.389 561.519 514.375 561.758C514.572 561.716 514.808 561.66 515.082 561.589C515.356 561.519 515.616 561.424 515.862 561.305C516.108 561.185 516.319 561.034 516.495 560.851C516.671 560.668 516.759 560.45 516.759 560.197Z" fill-rule="evenodd"/>
<path clip-path="url(#TextBounds_3)" d="M530.385 557.771C530.385 558.165 530.283 558.566 530.08 558.974C529.876 559.382 529.63 559.786 529.341 560.187C529.053 560.587 528.751 560.967 528.434 561.326C528.118 561.684 527.84 562.011 527.601 562.307C527.798 562.616 528.044 563.027 528.339 563.54C528.635 564.054 528.916 564.599 529.183 565.175C529.45 565.752 529.679 566.314 529.869 566.863C530.058 567.411 530.153 567.868 530.153 568.234C530.153 568.529 530.062 568.8 529.879 569.046C529.696 569.292 529.443 569.415 529.12 569.415C528.881 569.415 528.638 569.313 528.392 569.109C528.146 568.905 527.9 568.638 527.654 568.308C527.408 567.977 527.172 567.608 526.947 567.2C526.722 566.792 526.515 566.392 526.325 565.998C526.135 565.604 525.966 565.235 525.819 564.89C525.671 564.546 525.555 564.268 525.471 564.057C525.288 564.24 525.094 564.391 524.89 564.511C524.687 564.63 524.486 564.767 524.289 564.922C524.289 565.217 524.279 565.632 524.258 566.167C524.237 566.701 524.173 567.228 524.068 567.749C523.962 568.269 523.79 568.723 523.551 569.109C523.312 569.496 522.96 569.689 522.496 569.689C522.131 569.689 521.849 569.524 521.653 569.194C521.456 568.863 521.312 568.476 521.22 568.033C521.129 567.59 521.076 567.14 521.062 566.683C521.048 566.226 521.041 565.878 521.041 565.639C521.041 564.599 521.069 563.558 521.125 562.517C521.181 561.477 521.217 560.436 521.231 559.396C521.231 559.157 521.234 558.844 521.241 558.457C521.248 558.07 521.273 557.652 521.315 557.202C521.357 556.752 521.421 556.295 521.505 555.831C521.589 555.367 521.709 554.948 521.864 554.576C522.018 554.203 522.219 553.901 522.465 553.669C522.711 553.437 523.01 553.321 523.361 553.321C523.614 553.321 523.829 553.415 524.005 553.605C524.18 553.795 524.321 554.038 524.426 554.333C524.532 554.628 524.609 554.959 524.658 555.324C524.708 555.69 524.743 556.052 524.764 556.411C524.785 556.769 524.796 557.103 524.796 557.413C524.796 557.722 524.796 557.968 524.796 558.151C524.796 558.278 524.792 558.464 524.785 558.71C524.778 558.956 524.771 559.213 524.764 559.48C524.757 559.747 524.753 559.993 524.753 560.218C524.753 560.443 524.767 560.605 524.796 560.703C524.894 560.703 525.042 560.608 525.239 560.419C525.435 560.229 525.664 559.986 525.924 559.691C526.184 559.396 526.465 559.083 526.768 558.752C527.07 558.422 527.38 558.109 527.696 557.814C528.012 557.518 528.325 557.276 528.635 557.086C528.944 556.896 529.232 556.801 529.499 556.801C529.781 556.801 529.999 556.899 530.153 557.096C530.308 557.293 530.385 557.518 530.385 557.771Z" fill-rule="evenodd"/>
<path clip-path="url(#TextBounds_3)" d="M537.304 557.518C537.304 557.926 537.167 558.228 536.893 558.425C536.619 558.622 536.313 558.808 535.975 558.984C535.638 559.16 535.332 559.367 535.058 559.607C534.783 559.846 534.646 560.204 534.646 560.682C534.646 560.935 534.706 561.153 534.826 561.336C534.945 561.519 535.093 561.684 535.269 561.832C535.444 561.98 535.638 562.131 535.849 562.285C536.06 562.44 536.253 562.616 536.429 562.813C536.605 563.01 536.752 563.249 536.872 563.53C536.991 563.811 537.051 564.156 537.051 564.564C537.051 565.154 536.9 565.734 536.598 566.304C536.295 566.873 535.908 567.38 535.437 567.823C534.966 568.265 534.435 568.621 533.845 568.888C533.254 569.155 532.671 569.289 532.094 569.289C531.855 569.289 531.616 569.271 531.377 569.236C531.138 569.201 530.923 569.134 530.733 569.035C530.544 568.937 530.385 568.8 530.259 568.624C530.132 568.448 530.069 568.22 530.069 567.939C530.069 567.545 530.146 567.239 530.301 567.021C530.456 566.803 530.653 566.631 530.892 566.504C531.131 566.378 531.387 566.279 531.662 566.209C531.936 566.139 532.192 566.051 532.431 565.945C532.671 565.84 532.867 565.703 533.022 565.534C533.177 565.365 533.254 565.126 533.254 564.817C533.254 564.521 533.138 564.215 532.906 563.899C532.674 563.583 532.417 563.245 532.136 562.887C531.855 562.528 531.598 562.145 531.366 561.737C531.134 561.329 531.018 560.879 531.018 560.387C531.018 559.782 531.141 559.223 531.387 558.71C531.633 558.197 531.964 557.75 532.379 557.371C532.794 556.991 533.268 556.692 533.803 556.474C534.337 556.256 534.899 556.147 535.49 556.147C535.715 556.147 535.937 556.168 536.155 556.21C536.373 556.253 536.566 556.326 536.735 556.432C536.903 556.537 537.04 556.678 537.146 556.854C537.251 557.03 537.304 557.251 537.304 557.518Z" fill-rule="evenodd"/>
</g>
</g>
</g>
</g>
</svg>
